<?xml version="1.0" encoding="UTF-8"?><svg id="Layer_1" xmlns="http://www.w3.org/2000/svg" viewBox="0 0 335.31 321.83"><defs><style>.cls-1{fill:#eab03c;}</style></defs><path d="M265.39,310.41c-47.44-49.63-93.72-100.35-140.16-150.93-13.18-10.27-23.56-4.96-38.14-6.84-34.29-4.43-67.15-33.08-80.31-64.31C-13.86,39.36,14.23-5.31,69.53,6.99c37.56,8.36,74.59,47.67,78.59,86.25,1.46,14.09-3.18,23.93,6.78,36.65,40.54,37.63,82.13,74.2,122.24,112.29,8.58,8.15,27.28,23.93,33.14,32.8,18.61,28.18-17.76,60.28-44.88,35.44Z"/><path class="cls-1" d="M255.18.21c13.51-2.16,22.58,12.7,14.09,23.79-11.42,14.93-32.32,28.8-43.87,43.8-6.19,8.03,1.52,16.57,8.94,11.92l44.27-44.14c14.27-12.32,33.04,4.69,22.15,19.86l-44.98,44.93c-4.35,7.92,3.33,15.62,10.79,10.02,15.2-12.37,29.15-32.47,44.28-44.13,15.82-12.19,33.14,8.73,19.54,22.49-20.72,18.99-39.53,41.58-60.37,60.26-9.15,8.21-17.18,14.01-30.03,14.94-11.09.81-21.07-4.41-32.06-2.36l-35.47-31.32c-.84-1.56,1-4.24,1.17-6.35.77-9.13-3.29-17.36-3.04-26.24.48-17.22,10.13-26.51,21.02-38.16,18.18-19.46,38.37-37.11,57-56.14,1.73-1.39,4.39-2.83,6.57-3.17Z"/><path class="cls-1" d="M123.86,176l32.91,36.62c-19.05,21.14-37.53,42.88-57,63.63-9.83,10.48-33.82,37.78-45.63,42.79-24.44,10.37-47.82-9.7-39.85-35.28,4.47-14.34,30.03-36.77,41.58-47.58,22.08-20.67,45.51-39.95,67.99-60.19Z"/></svg>